HIERARCHY
ROOT hip
{
  OFFSET 0 0 0
  CHANNELS 6 Xposition Yposition Zposition Zrotation Yrotation Xrotation
  JOINT abdomen
  {
    OFFSET 0 20.6881 -0.73152
    CHANNELS 3 Zrotation Xrotation Yrotation
    JOINT chest
    {
      OFFSET 0 11.7043 -0.48768
      CHANNELS 3 Zrotation Xrotation Yrotation
      JOINT neck
      {
        OFFSET 0 22.1894 -2.19456
        CHANNELS 3 Zrotation Xrotation Yrotation
        JOINT head
        {
          OFFSET -0.24384 7.07133 1.2192
          CHANNELS 3 Zrotation Xrotation Yrotation
          JOINT leftEye
          {
            OFFSET 4.14528 8.04674 8.04672
            CHANNELS 3 Zrotation Xrotation Yrotation
            End Site
            {
              OFFSET 1 0 0
            }
          }
          JOINT rightEye
          {
            OFFSET -3.6576 8.04674 8.04672
            CHANNELS 3 Zrotation Xrotation Yrotation
            End Site
            {
              OFFSET 1 0 0
            }
          }
        }
      }
      JOINT rCollar
      {
        OFFSET -2.68224 19.2634 -4.8768
        CHANNELS 3 Zrotation Xrotation Yrotation
        JOINT rShldr
        {
          OFFSET -8.77824 -1.95073 1.46304
          CHANNELS 3 Zrotation Xrotation Yrotation
          JOINT rForeArm
          {
            OFFSET -28.1742 -1.7115 0.48768
            CHANNELS 3 Zrotation Xrotation Yrotation
            JOINT rHand
            {
              OFFSET -22.5879 0.773209 7.07136
              CHANNELS 3 Zrotation Xrotation Yrotation
              JOINT rThumb1
              {
                OFFSET -1.2192 -0.487915 3.41376
                CHANNELS 3 Zrotation Xrotation Yrotation
                JOINT rThumb2
                {
                  OFFSET -3.37035 -0.52449 3.41376
                  CHANNELS 3 Zrotation Xrotation Yrotation
                  End Site
                  {
                    OFFSET -1.78271 -1.18214 1.43049
                  }
                }
              }
              JOINT rIndex1
              {
                OFFSET -7.75947 0.938293 5.60832
                CHANNELS 3 Zrotation Xrotation Yrotation
                JOINT rIndex2
                {
                  OFFSET -2.54057 -0.884171 1.56538
                  CHANNELS 3 Zrotation Xrotation Yrotation
                  End Site
                  {
                    OFFSET -1.62519 -0.234802 1.16502
                  }
                }
              }
              JOINT rMid1
              {
                OFFSET -8.24714 1.18213 3.41376
                CHANNELS 3 Zrotation Xrotation Yrotation
                JOINT rMid2
                {
                  OFFSET -3.10165 -0.590103 1.0647
                  CHANNELS 3 Zrotation Xrotation Yrotation
                  End Site
                  {
                    OFFSET -2.48547 -0.328903 0.83742
                  }
                }
              }
              JOINT rRing1
              {
                OFFSET -8.82822 0.546677 1.51678
                CHANNELS 3 Zrotation Xrotation Yrotation
                JOINT rRing2
                {
                  OFFSET -2.60934 -0.819778 -0.0198488
                  CHANNELS 3 Zrotation Xrotation Yrotation
                  End Site
                  {
                    OFFSET -2.33842 -0.294052 0.168128
                  }
                }
              }
              JOINT rPinky1
              {
                OFFSET -8.27202 -0.0477905 -0.4584
                CHANNELS 3 Zrotation Xrotation Yrotation
                JOINT rPinky2
                {
                  OFFSET -1.82734 -0.647385 -0.700984
                  CHANNELS 3 Zrotation Xrotation Yrotation
                  End Site
                  {
                    OFFSET -1.69225 -0.51767 -0.607171
                  }
                }
              }
            }
          }
        }
      }
      JOINT lCollar
      {
        OFFSET 2.68224 19.2634 -4.8768
        CHANNELS 3 Zrotation Xrotation Yrotation
        JOINT lShldr
        {
          OFFSET 8.77824 -1.95073 1.46304
          CHANNELS 3 Zrotation Xrotation Yrotation
          JOINT lForeArm
          {
            OFFSET 28.1742 -1.7115 0.48768
            CHANNELS 3 Zrotation Xrotation Yrotation
            JOINT lHand
            {
              OFFSET 22.5879 0.773209 7.07136
              CHANNELS 3 Zrotation Xrotation Yrotation
              JOINT lThumb1
              {
                OFFSET 1.2192 -0.487915 3.41376
                CHANNELS 3 Zrotation Xrotation Yrotation
                JOINT lThumb2
                {
                  OFFSET 3.37035 -0.52449 3.41376
                  CHANNELS 3 Zrotation Xrotation Yrotation
                  End Site
                  {
                    OFFSET 1.78271 -1.18214 1.43049
                  }
                }
              }
              JOINT lIndex1
              {
                OFFSET 7.75947 0.938293 5.60832
                CHANNELS 3 Zrotation Xrotation Yrotation
                JOINT lIndex2
                {
                  OFFSET 2.54057 -0.884171 1.56538
                  CHANNELS 3 Zrotation Xrotation Yrotation
                  End Site
                  {
                    OFFSET 1.62519 -0.234802 1.16502
                  }
                }
              }
              JOINT lMid1
              {
                OFFSET 8.24714 1.18213 3.41376
                CHANNELS 3 Zrotation Xrotation Yrotation
                JOINT lMid2
                {
                  OFFSET 3.10165 -0.590103 1.0647
                  CHANNELS 3 Zrotation Xrotation Yrotation
                  End Site
                  {
                    OFFSET 2.48547 -0.328903 0.83742
                  }
                }
              }
              JOINT lRing1
              {
                OFFSET 8.82822 0.546677 1.51678
                CHANNELS 3 Zrotation Xrotation Yrotation
                JOINT lRing2
                {
                  OFFSET 2.60934 -0.819778 -0.0198488
                  CHANNELS 3 Zrotation Xrotation Yrotation
                  End Site
                  {
                    OFFSET 2.33842 -0.294052 0.168128
                  }
                }
              }
              JOINT lPinky1
              {
                OFFSET 8.27202 -0.0477905 -0.4584
                CHANNELS 3 Zrotation Xrotation Yrotation
                JOINT lPinky2
                {
                  OFFSET 1.82734 -0.647385 -0.700984
                  CHANNELS 3 Zrotation Xrotation Yrotation
                  End Site
                  {
                    OFFSET 1.69225 -0.51767 -0.607171
                  }
                }
              }
            }
          }
        }
      }
    }
  }
  JOINT rButtock
  {
    OFFSET -8.77824 4.35084 1.2192
    CHANNELS 3 Zrotation Xrotation Yrotation
    JOINT rThigh
    {
      OFFSET 0 -1.70687 -2.19456
      CHANNELS 3 Zrotation Xrotation Yrotation
      JOINT rShin
      {
        OFFSET 0 -36.8199 0.73152
        CHANNELS 3 Zrotation Xrotation Yrotation
        JOINT rFoot
        {
          OFFSET 0.73152 -45.1104 -5.12064
          CHANNELS 3 Zrotation Xrotation Yrotation
          End Site
          {
            OFFSET -1.1221 -3.69964 12.103
          }
        }
      }
    }
  }
  JOINT lButtock
  {
    OFFSET 8.77824 4.35084 1.2192
    CHANNELS 3 Zrotation Xrotation Yrotation
    JOINT lThigh
    {
      OFFSET 0 -1.70687 -2.19456
      CHANNELS 3 Zrotation Xrotation Yrotation
      JOINT lShin
      {
        OFFSET 0 -36.8199 0.73152
        CHANNELS 3 Zrotation Xrotation Yrotation
        JOINT lFoot
        {
          OFFSET -0.73152 -45.1104 -5.12064
          CHANNELS 3 Zrotation Xrotation Yrotation
          End Site
          {
            OFFSET 1.1221 -3.69964 12.103
          }
        }
      }
    }
  }
}
MOTION
Frames:	4
Frame Time:	0.03333
0.04751286469399929 62.14908957481384 0.08845389820635319 -4.106421947479248 1.5170925855636597 5.587803363800049 -2.283090829849243 14.790597915649414 3.732286214828491 2.6930782794952393 -9.793960571289062 1.2630380392074585 -5.173604488372803 14.955042839050293 -3.6186797618865967 8.885546684265137 -24.112071990966797 -5.160451889038086 0.05555232986807823 0.06522365659475327 0.054484542459249496 -0.010103747248649597 0.048794422298669815 -0.012814413756132126 -0.006775274872779846 -0.08947433531284332 -0.09676746279001236 44.31369400024414 37.23554611206055 19.707368850708008 -27.585338592529297 -28.433149337768555 64.78612518310547 -0.19298899173736572 -11.995287895202637 -1.735202431678772 -0.043366625905036926 0.05575829744338989 -0.02056415192782879 -0.018493616953492165 -0.013397621922194958 0.04040258377790451 0.020081372931599617 -0.041109297424554825 0.030294205993413925 7.755887508392334 5.407352924346924 0.45169052481651306 -0.04365520924329758 0.03911157697439194 0.03437935560941696 2.9572362899780273 0.9495821595191956 0.11462155729532242 0.0145232193171978 -0.07822677493095398 0.031530942767858505 10.253446578979492 0.7065961956977844 -0.018533749505877495 0.013723495416343212 0.008929817005991936 0.06403471529483795 2.1764109134674072 -0.7389492392539978 -0.2473677694797516 -0.0023315371945500374 -0.031355779618024826 0.024409817531704903 -51.99695587158203 39.516319274902344 -30.017393112182617 26.977163314819336 -26.49570083618164 -61.596717834472656 0.20665079355239868 -13.554510116577148 1.9730439186096191 0.023354969918727875 -0.02447286993265152 -0.012617338448762894 -0.02081628516316414 -0.01525574829429388 0.008665411733090878 -0.035322751849889755 -0.0032984863501042128 -0.014128888957202435 -7.770108222961426 5.484518051147461 -0.393450528383255 0.037246864289045334 0.05463051423430443 -0.008510035462677479 -2.9127790927886963 0.9387877583503723 -0.1265030801296234 0.0268926452845335 -0.04067275673151016 0.0369562990963459 -10.256752014160156 0.7366756796836853 0.007519072387367487 -0.012665320187807083 -0.008265431970357895 -0.027401428669691086 -2.213968515396118 -0.7076855301856995 0.21584048867225647 -0.04112011566758156 0.018068289384245872 0.013400518335402012 -24.918323516845703 -40.01015853881836 -20.471256256103516 -1.5797432661056519 65.42557525634766 2.707183599472046 -3.6770198345184326 -10.999137878417969 -10.016432762145996 -0.02484324388206005 0.04122038930654526 -0.00822251383215189 30.63352394104004 -40.14128875732422 23.2388916015625 1.7149111032485962 66.05152893066406 -2.7946839332580566 4.1370368003845215 -10.796774864196777 13.413917541503906
0.0563907902687788 62.09504008293152 0.0769235659390688 -4.190092086791992 1.289955735206604 5.521968364715576 -2.192499876022339 14.73979663848877 3.693497657775879 2.647186040878296 -9.807100296020508 1.3524082899093628 -5.1468610763549805 14.798558235168457 -3.602003335952759 8.891805648803711 -24.029977798461914 -5.104778289794922 0.0991920754313469 0.0659201517701149 0.049315195530653 0.0017685230122879148 0.04300665482878685 -0.04402787238359451 0.0048995185643434525 -0.110716812312603 -0.12999539077281952 43.900691986083984 37.149593353271484 20.05248260498047 -27.49397850036621 -28.273651123046875 64.55329895019531 -0.17748261988162994 -11.599271774291992 -1.7237110137939453 -0.0672830119729042 0.016221793368458748 0.002583308843895793 -0.042453981935977936 -0.07244783639907837 0.05446420982480049 0.05440686643123627 -0.03584839776158333 0.04460444673895836 7.714736461639404 5.427027225494385 0.46707531809806824 -0.11665718257427216 0.061700236052274704 0.09404543787240982 2.9843764305114746 0.9416869878768921 0.14617188274860382 -0.06961449980735779 -0.10402361303567886 0.034592606127262115 10.209871292114258 0.705195426940918 0.0032473509199917316 0.019502466544508934 -0.01657896116375923 0.09091898053884506 2.210493803024292 -0.7928485870361328 -0.23622696101665497 0.024390337988734245 -0.02790130116045475 -0.007095309905707836 -51.43089294433594 39.53719711303711 -30.651376724243164 26.98504638671875 -26.707258224487305 -61.764461517333984 0.20974144339561462 -13.506950378417969 2.0398080348968506 0.042972590774297714 -0.014325548894703388 -0.051305994391441345 0.012533807195723057 -0.05784148722887039 0.02364685945212841 -0.08638255298137665 0.044496748596429825 -0.010625218041241169 -7.826929569244385 5.468133926391602 -0.3718579113483429 0.0870978981256485 0.046431925147771835 -0.01909787766635418 -2.9612653255462646 0.9208604693412781 -0.18780292570590973 0.0687301978468895 -0.12627360224723816 0.06637244671583176 -10.278796195983887 0.6839665770530701 0.04284545034170151 0.002118009841069579 -0.02589973248541355 -0.009731270372867584 -2.1311583518981934 -0.6951703429222107 0.22001215815544128 0.004685625899583101 0.007177939172834158 0.02512749843299389 -24.78678321838379 -39.926273345947266 -20.22408676147461 -1.6856238842010498 65.35324096679688 2.8001997470855713 -3.7420029640197754 -10.95992374420166 -10.087106704711914 -0.052279941737651825 0.06628967076539993 -0.04064296931028366 30.681119918823242 -40.37082290649414 23.329818725585938 1.7932206392288208 66.13887023925781 -2.798652410507202 4.157182693481445 -10.8262357711792 13.543490409851074
-0.05151159130036831 57.33903646469116 0.07765619084239006 4.717836380004883 28.169736862182617 11.896778106689453 -12.55528450012207 11.878080368041992 5.080048561096191 3.784332752227783 -10.348589897155762 1.4046554565429688 -9.06735610961914 17.082523345947266 -11.847672462463379 10.029475212097168 -29.523832321166992 -21.247161865234375 0.20404323935508728 -0.14064601063728333 0.2000981867313385 -0.09018884599208832 0.029844222590327263 -0.3417358100414276 0.0334942601621151 0.03833208233118057 -0.1356634646654129 28.309757232666016 -21.129878997802734 59.68880081176758 -11.159541130065918 -4.941547870635986 20.26194953918457 -0.6640124917030334 24.734312057495117 3.5412204265594482 -0.1634368896484375 0.04985124245285988 0.12886005640029907 -0.22237390279769897 -0.05005349591374397 0.2134908139705658 0.25937336683273315 -0.009358461946249008 0.26768434047698975 7.609487533569336 5.482146263122559 0.6834118962287903 -0.1693859100341797 0.21829763054847717 0.22946526110172272 3.1462314128875732 0.9273316264152527 0.05079660564661026 -0.026282595470547676 -0.07327547669410706 0.05724131688475609 10.184643745422363 0.8054807782173157 0.0032800068147480488 -0.034790411591529846 -0.1271037757396698 0.16945485770702362 2.0050225257873535 -0.7439432144165039 -0.023314213380217552 -0.023915259167551994 0.13293248414993286 -0.11901640146970749 -114.16381072998047 53.569557189941406 49.19474792480469 27.76750946044922 -40.740333557128906 -86.2265853881836 13.082223892211914 -66.51473236083984 19.42949676513672 0.2081339955329895 0.13909904658794403 0.05209535360336304 -0.043960489332675934 -0.19188520312309265 -0.13886360824108124 -0.19448581337928772 0.14621601998806 -0.3544657230377197 -7.945265769958496 5.554123878479004 -0.5508196949958801 0.13862283527851105 0.06960581988096237 0.05638086050748825 -2.897675037384033 0.9679588675498962 -0.4111727476119995 0.15716736018657684 -0.2154470980167389 0.02907537668943405 -10.224658966064453 0.5389350056648254 -0.16852448880672455 -0.0006128352833911777 -0.00505735632032156 0.08428899198770523 -2.1314430236816406 -0.5607742071151733 0.027229901403188705 -0.13160058856010437 -0.2503410577774048 0.19854730367660522 -53.70686721801758 -56.38755416870117 -48.492347717285156 -2.6166298389434814 67.29946899414062 3.0546419620513916 -0.7875733971595764 1.909338355064392 2.147024154663086 -0.10921575874090195 0.11191631108522415 -0.0898941233754158 10.793017387390137 -3.1266188621520996 3.8198978900909424 0.5802779793739319 47.817867279052734 -2.90328049659729 7.432895660400391 -14.077509880065918 29.12978172302246
-0.03161369822919369 54.78666424751282 0.15229443088173866 10.899956703186035 28.010509490966797 8.893730163574219 -12.75344467163086 13.333305358886719 3.8922841548919678 4.003144264221191 -10.521138191223145 1.1487362384796143 -7.801910400390625 16.84880256652832 -11.494324684143066 8.744864463806152 -31.632509231567383 -20.74038314819336 0.00794944167137146 -0.18860647082328796 0.09367618709802628 -0.01669383980333805 0.42549991607666016 -0.18493525683879852 -0.18406344950199127 -0.214901864528656 -0.07707103341817856 26.420368194580078 -24.34007453918457 64.05488586425781 -9.710945129394531 -3.969132900238037 17.274953842163086 -0.45062369108200073 21.160140991210938 2.8834753036499023 0.01495832484215498 0.15538397431373596 -0.005949363112449646 -0.20726066827774048 0.1344965398311615 -0.1744336187839508 -0.17401087284088135 -0.201421320438385 0.09162212908267975 7.705818176269531 5.589923858642578 0.4797663390636444 -0.06337003409862518 0.21439801156520844 0.016812782734632492 3.0464651584625244 0.8532469868659973 -0.10011298209428787 -0.21397271752357483 0.13082529604434967 0.07656072080135345 10.197073936462402 0.7004902958869934 -0.0997878760099411 0.20907051861286163 0.1145348772406578 -0.0257074236869812 2.0507476329803467 -0.8532166481018066 -0.2305789589881897 0.12926648557186127 0.362327516078949 0.05897798761725426 -112.38912200927734 54.02310562133789 49.513038635253906 28.722488403320312 -40.365386962890625 -83.88338470458984 17.15131378173828 -70.63900756835938 23.904939651489258 0.09541387110948563 0.2591359615325928 -0.03430351987481117 -0.02997606061398983 0.007078314200043678 -0.0303675327450037 -0.23915070295333862 0.18932020664215088 -0.36482587456703186 -7.600493907928467 5.458133220672607 -0.35704177618026733 -0.22603066265583038 0.020254923030734062 -0.14898839592933655 -2.6101856231689453 0.955603301525116 -0.39776110649108887 -0.09996684640645981 0.05917474627494812 -0.33091238141059875 -10.470606803894043 0.6814171671867371 0.1687222123146057 0.13969099521636963 -0.12207222729921341 0.05458781123161316 -2.3418028354644775 -0.8127206563949585 0.18270696699619293 0.019077438861131668 0.11117920279502869 -0.03239978849887848 -57.041683197021484 -60.9253044128418 -47.527645111083984 -1.5138081312179565 64.53821563720703 2.450317621231079 -0.16120904684066772 2.5627036094665527 3.6744823455810547 -0.05088837072253227 0.027453873306512833 0.12317453324794769 10.343876838684082 -4.449081897735596 1.0464719533920288 0.5619276762008667 52.645416259765625 -2.9604554176330566 5.395349025726318 -14.404086112976074 26.19746208190918
